<svg xmlns="http://www.w3.org/2000/svg" fill-rule="evenodd" stroke-linejoin="round" stroke-miterlimit="1.414" clip-rule="evenodd" viewBox="0 0 1024 1024"><path fill="#ccc" d="M341.406 29.156v187.356C239.454 275.542 170.809 385.818 170.809 512c0 188.312 152.881 341.194 341.194 341.194 188.305 0 341.194-152.882 341.194-341.194 0-126.182-68.645-236.458-170.597-295.488V29.156C881.413 99.487 1024.003 289.224 1024.003 512c0 282.58-229.42 512-512 512-282.58 0-512-229.42-512-512 0-222.776 142.583-412.513 341.403-482.844z"/><path fill="#2f8cbb" d="M426.704 7.087C454.444 2.427 482.942 0 512.003 0c29.054 0 57.551 2.425 85.298 7.086v174.486c-27.27-7.028-55.854-10.768-85.298-10.768-29.451 0-58.036 3.74-85.299 10.768V7.087zM426.704 668.399v-397.71c26.685-9.445 55.393-14.584 85.299-14.584 29.899 0 58.613 5.14 85.298 14.584v397.71c-26.685 9.446-55.4 14.58-85.298 14.58-29.906 0-58.614-5.134-85.299-14.58z"/></svg>